<?xml version="1.0" encoding="utf-8"?>
<!-- Generator: Adobe Illustrator 16.0.0, SVG Export Plug-In . SVG Version: 6.00 Build 0)  -->
<!DOCTYPE svg PUBLIC "-//W3C//DTD SVG 1.1//EN" "http://www.w3.org/Graphics/SVG/1.1/DTD/svg11.dtd">
<svg version="1.1" id="Layer_1" xmlns="http://www.w3.org/2000/svg" xmlns:xlink="http://www.w3.org/1999/xlink" x="0px" y="0px"
	 width="150.435px" height="78.509px" viewBox="0 0 150.435 78.509" enable-background="new 0 0 150.435 78.509"
	 xml:space="preserve">
<g>
	<g>
		<g>
			<polygon fill="#107A3D" points="18.657,7.632 32.024,7.632 32.024,18.707 23.922,18.707 23.922,28.29 30.556,28.29 30.45,38.896 
				23.607,38.896 23.607,60.47 18.657,60.47 			"/>
			<polygon fill="#107A3D" points="36.445,7.632 52.334,7.632 52.334,20.555 46.862,20.555 46.862,60.47 42.124,60.47 
				42.124,20.555 36.445,20.555 			"/>
			<linearGradient id="SVGID_1_" gradientUnits="userSpaceOnUse" x1="81.6602" y1="28.5928" x2="80.8775" y2="-2.3217">
				<stop  offset="0" style="stop-color:#630810"/>
				<stop  offset="1" style="stop-color:#E92F25"/>
			</linearGradient>
			<path fill="url(#SVGID_1_)" d="M110.585,30.135c0,16.635-12.935,30.121-28.884,30.121c-15.955,0-28.887-13.485-28.887-30.121
				C52.813,13.482,65.746,0,81.701,0C97.65,0,110.585,13.482,110.585,30.135z"/>
			<path fill="#107A3D" d="M54.123,30.135h54.725c0,0,0.208,26.983-27.147,28.718C81.701,58.853,56.44,59.662,54.123,30.135z"/>
			<polygon fill="#107A3D" points="112.912,7.632 117.963,7.632 117.963,27.014 123.65,7.632 130.489,7.632 124.49,28.169 
				130.489,60.692 125.119,60.692 120.806,39.129 118.07,47.201 118.07,60.692 112.912,60.692 			"/>
			<path fill="#1B111B" d="M81.488,12.655l-2.629,3.226c0,0,1.887,2.942,2.316,5.251c0,0,0.418,2.942,0.313,4.323
				c0,0,0.152,0.468-1.057-1.498l-1.156-1.728c0,0-1.94-3.924-5.472-2.828c0,0-0.466,0.808,0.37,1.501
				c0.846,0.692,2.361,1.5,2.361,1.5s0.527,0.17,1.056,0.458c0.527,0.291,1.738,1.385,1.738,1.385l2.162,1.963l-0.211,2.42
				c0,0-1.155-1.091-1.319-1.27c-0.157-0.175-2.041-2.305-3.365-2.243c0,0-2.1-0.47-2.523,0.746c0,0-0.635,1.268,1.103,1.497
				c0,0,2.208,0,2.783,0.179c0.583,0.172,2.111,0.802,2.111,0.802l0.844,0.865L80.537,29.9h1.948v-0.983c0,0,1.163-0.981,1.74-1.156
				c0.573-0.171,1.733-0.341,1.733-0.341l1.047-0.177l1.32,0.056c0,0,1.32-0.348,1.158-1.092c0,0,0.315-1.792-2.106-1.328
				c0,0-1.885,0.689-2.834,1.328c-0.949,0.63-2.111,1.962-2.262,2.247c-0.158,0.29-0.217-2.303-0.217-2.303s2.58-3.001,3.207-3.234
				c0.633-0.23,1.579-0.629,1.579-0.629s2.981-1.039,2.652-2.311c0,0-0.439-2.079-3.28-0.118c0,0-3.467,4.384-4.1,5.362
				c0,0-0.269-3.052-0.16-3.628c0.101-0.578,0.522-3.235,2.209-5.598L81.488,12.655z"/>
			<path d="M78.859,37.362c0,1.157-0.873,2.093-1.953,2.093c-1.071,0-1.947-0.937-1.947-2.093c0-1.162,0.876-2.1,1.947-2.1
				C77.986,35.263,78.859,36.2,78.859,37.362z"/>
			<path d="M90.481,37.362c0,1.157-0.869,2.093-1.946,2.093c-1.071,0-1.943-0.937-1.943-2.093c0-1.162,0.872-2.1,1.943-2.1
				C89.612,35.263,90.481,36.2,90.481,37.362z"/>
			<path d="M70.49,42.239l5.317-2.479h2.465l4.482,2.017l4.571-2.017h2.583l4.834,2.479c0,0,0.522,1.386-1.052,1.092l-3.21-1.319
				v3.288l1.999,3.059h-1.999v3.456c0,0-0.729,0.637-1.524,0v-3.58h-0.422v3.466c0,0-0.896,0.808-1.631-0.059v-3.341h-1.893
				l1.58-2.373v-4.269l-3.261,1.619l-0.95,0.117l-3.522-1.671l-0.271,4.205l1.37,4.904c0,0-0.212,1.792-1.42,0.345l-1.365-4.325
				h-0.737l-1.054,4.5c0,0-1.894,1.157-1.471-0.686l1.32-4.504l-0.27-4.213l-3.571,1.446C71.388,43.395,70.285,43.858,70.49,42.239z
				"/>
			<path fill="#FFCC33" d="M72.496,66.91c0,0,0.565-7.914,8.693-8.148c0,0,7.237-1.155,9.688,7.383c0,0,5.543-6.924,6.87-6.77
				l0.429-0.154c0,0-0.634,1.915-0.273,2.454c0,0,4.687-5.835,9.121-5.915c0,0-1.622,1.921-0.49,3.002c0,0,6.233-2.465,8.485-2.005
				c0,0,6.036-0.607,7.712,5.85c1.686,6.459-6.804,6.151-5.335,2.231c0,0,1.718-1.065,1.69,0.845c0,0-0.572,0.77-0.355,0.77
				c0.213,0-0.216,0-0.216,0s1.414,1.076,2.465-0.307c0,0,1.664-1.212,0.491-4.438c0,0-1.825-7.256-14.243-2.331
				c0,0-18.094,9.612-18.384,9.612c-0.287,0-5.122,0.536-3.223-2.693c0,0,2.452-0.691,1.334,1.847c0,0,1.32,0.829,3.153-1.232
				c0,0,0.555-7.073-8.919-7.688c0,0-6.661,0.228-8.128,7.918c0,0,0.418,1.002,2.24,1.153c0,0-0.35-3.069,2.037-1.617
				c0,0,1.687,2.15-2.529,2.349c0,0-0.487,0.884-12.201-5.733c0,0-9.476-6.142-15.579-5.917c0,0-5.611,0.612-6.174,5.038
				c0,0-0.696,2.271,0.563,3.271c0,0,0,0.538,2.101,1.071c0,0-0.978-2.146,1.054-2.3c0,0,0.496,0.07,0.777,0.771
				c0,0,0.627,1.53-1.269,1.916c0,0-6.071,0.617-3.42-6.533c0,0,1.951-3.613,5.249-3.766c0,0,5.335-0.69,9.894,1.689l0.559,0.079
				c0,0,0.631-1.158-1.059-2.848c0,0,4.47-0.338,9.198,5.376c0,0,0.479-0.686-0.356-1.761C63.305,58.298,66.465,58.529,72.496,66.91
				z"/>
			<path fill="#1B111B" d="M65.521,21.589l-1.267,1.561c0,0,0.913,1.413,1.112,2.528c0,0,0.201,1.415,0.155,2.083
				c0,0,0.076,0.218-0.508-0.726l-0.558-0.837c0,0-0.934-1.886-2.633-1.36c0,0-0.232,0.39,0.176,0.728
				c0.402,0.335,1.137,0.724,1.137,0.724s0.253,0.075,0.509,0.221c0.25,0.133,0.833,0.665,0.833,0.665l1.043,0.942l-0.102,1.168
				c0,0-0.555-0.527-0.635-0.615c-0.077-0.08-0.988-1.107-1.62-1.082c0,0-1.017-0.22-1.216,0.368c0,0-0.307,0.604,0.527,0.714
				c0,0,1.066,0,1.346,0.088c0.276,0.08,1.011,0.392,1.011,0.392l0.405,0.411L65.061,29.9h0.94v-0.474c0,0,0.558-0.471,0.836-0.557
				c0.279-0.087,0.84-0.166,0.84-0.166l0.509-0.082l0.63,0.028c0,0,0.629-0.17,0.558-0.531c0,0,0.149-0.858-1.012-0.635
				c0,0-0.917,0.328-1.373,0.635c-0.452,0.307-1.01,0.942-1.091,1.084c-0.076,0.138-0.098-1.113-0.098-1.113s1.24-1.445,1.544-1.553
				c0.305-0.109,0.755-0.303,0.755-0.303s1.444-0.504,1.274-1.112c0,0-0.209-0.999-1.574-0.057c0,0-1.669,2.111-1.978,2.582
				c0,0-0.118-1.466-0.07-1.745c0.049-0.275,0.25-1.561,1.06-2.697L65.521,21.589z"/>
			<path fill="#1B111B" d="M97.273,21.589l-1.268,1.561c0,0,0.912,1.413,1.112,2.528c0,0,0.205,1.415,0.156,2.083
				c0,0,0.08,0.218-0.51-0.726l-0.562-0.837c0,0-0.936-1.886-2.622-1.36c0,0-0.232,0.39,0.174,0.728
				c0.405,0.335,1.137,0.724,1.137,0.724s0.251,0.075,0.504,0.221c0.256,0.133,0.84,0.665,0.84,0.665l1.04,0.942l-0.105,1.168
				c0,0-0.558-0.527-0.634-0.615c-0.072-0.08-0.985-1.107-1.618-1.082c0,0-1.016-0.22-1.216,0.368c0,0-0.309,0.604,0.531,0.714
				c0,0,1.063,0,1.346,0.088c0.271,0.08,1.011,0.392,1.011,0.392l0.405,0.411L96.815,29.9h0.93v-0.474c0,0,0.559-0.471,0.839-0.557
				c0.287-0.087,0.841-0.166,0.841-0.166l0.509-0.082l0.631,0.028c0,0,0.633-0.17,0.563-0.531c0,0,0.142-0.858-1.021-0.635
				c0,0-0.91,0.328-1.365,0.635c-0.455,0.307-1.01,0.942-1.092,1.084c-0.077,0.138-0.101-1.113-0.101-1.113s1.239-1.445,1.551-1.553
				c0.295-0.109,0.755-0.303,0.755-0.303s1.438-0.504,1.272-1.112c0,0-0.203-0.999-1.572-0.057c0,0-1.675,2.111-1.983,2.582
				c0,0-0.132-1.466-0.08-1.745c0.056-0.275,0.252-1.561,1.067-2.697L97.273,21.589z"/>
		</g>
		<g>
			<path fill="#5F060F" d="M2.835,76.797c-0.178,0.12-0.534,0.236-0.986,0.236C0.793,77.033,0,76.146,0,74.507
				c0-1.564,0.793-2.625,1.954-2.625c0.464,0,0.76,0.132,0.886,0.218l-0.115,0.531c-0.184-0.119-0.445-0.207-0.754-0.207
				c-0.875,0-1.46,0.747-1.46,2.059c0,1.225,0.527,2.008,1.438,2.008c0.292,0,0.593-0.081,0.787-0.207L2.835,76.797z"/>
			<path fill="#5F060F" d="M3.403,74.491c0-0.423-0.007-0.786-0.024-1.121h0.428l0.017,0.705h0.021
				c0.122-0.479,0.415-0.784,0.744-0.784c0.057,0,0.093,0.005,0.138,0.023v0.616c-0.05-0.017-0.096-0.026-0.165-0.026
				c-0.346,0-0.589,0.351-0.657,0.84c-0.01,0.091-0.02,0.191-0.02,0.306v1.91H3.403V74.491z"/>
			<path fill="#5F060F" d="M5.43,75.286c0.012,0.882,0.431,1.246,0.922,1.246c0.348,0,0.559-0.083,0.745-0.187l0.08,0.468
				c-0.172,0.104-0.466,0.22-0.893,0.22c-0.825,0-1.319-0.728-1.319-1.805c0-1.083,0.478-1.938,1.258-1.938
				c0.875,0,1.11,1.03,1.11,1.689c0,0.136-0.011,0.237-0.017,0.306H5.43z M6.861,74.816c0.006-0.415-0.127-1.059-0.676-1.059
				c-0.494,0-0.708,0.607-0.749,1.059H6.861z"/>
			<path fill="#5F060F" d="M9.419,76.958l-0.039-0.451H9.365c-0.152,0.282-0.438,0.535-0.82,0.535c-0.544,0-0.823-0.51-0.823-1.032
				c0-0.866,0.579-1.342,1.615-1.333v-0.076c0-0.297-0.062-0.833-0.611-0.833c-0.249,0-0.511,0.106-0.699,0.27l-0.11-0.429
				c0.22-0.195,0.542-0.319,0.881-0.319c0.821,0,1.022,0.748,1.022,1.47V76.1c0,0.31,0.011,0.616,0.042,0.858H9.419z M9.348,75.128
				c-0.533-0.013-1.136,0.112-1.136,0.809c0,0.425,0.21,0.621,0.46,0.621c0.349,0,0.572-0.296,0.648-0.6
				c0.017-0.066,0.027-0.14,0.027-0.209V75.128z"/>
			<path fill="#5F060F" d="M11.169,72.343v1.026h0.7v0.498h-0.7v1.937c0,0.443,0.095,0.696,0.366,0.696
				c0.127,0,0.222-0.02,0.283-0.044l0.023,0.492c-0.095,0.051-0.242,0.086-0.434,0.086c-0.225,0-0.408-0.097-0.527-0.273
				c-0.137-0.191-0.189-0.513-0.189-0.933v-1.959h-0.415V73.37h0.415v-0.858L11.169,72.343z"/>
			<path fill="#5F060F" d="M12.958,72.363c0.007,0.221-0.114,0.399-0.309,0.399c-0.17,0-0.296-0.179-0.296-0.399
				c0-0.228,0.128-0.407,0.308-0.407C12.844,71.957,12.958,72.136,12.958,72.363z M12.416,76.958V73.37h0.488v3.589H12.416z"/>
			<path fill="#5F060F" d="M13.713,74.342c0-0.367-0.007-0.673-0.024-0.973h0.434l0.029,0.594h0.012
				c0.132-0.338,0.443-0.673,0.886-0.673c0.37,0,0.949,0.295,0.949,1.526v2.142h-0.489v-2.067c0-0.578-0.161-1.06-0.622-1.06
				c-0.32,0-0.57,0.304-0.653,0.668c-0.023,0.08-0.035,0.194-0.035,0.3v2.159h-0.487V74.342z"/>
			<path fill="#5F060F" d="M19.098,73.37c-0.009,0.261-0.018,0.551-0.018,0.986v2.085c0,0.82-0.126,1.325-0.386,1.639
				c-0.261,0.325-0.635,0.429-0.975,0.429c-0.323,0-0.678-0.104-0.894-0.297l0.124-0.494c0.176,0.146,0.455,0.28,0.788,0.28
				c0.497,0,0.864-0.35,0.864-1.253v-0.399H18.59c-0.151,0.333-0.438,0.602-0.853,0.602c-0.666,0-1.142-0.756-1.142-1.751
				c0-1.216,0.592-1.905,1.207-1.905c0.465,0,0.722,0.328,0.836,0.622h0.011l0.023-0.543H19.098z M18.595,74.788
				c0-0.11-0.005-0.208-0.026-0.297c-0.091-0.378-0.328-0.688-0.685-0.688c-0.465,0-0.795,0.526-0.795,1.356
				c0,0.704,0.262,1.29,0.79,1.29c0.3,0,0.572-0.253,0.677-0.666c0.03-0.113,0.039-0.241,0.039-0.35V74.788z"/>
			<path fill="#5F060F" d="M25.362,74.618h-1.453v1.8h1.62v0.541h-2.104v-4.996h2.022v0.542h-1.538v1.578h1.453V74.618z"/>
			<path fill="#5F060F" d="M27.944,76.405h-0.012c-0.145,0.354-0.445,0.637-0.875,0.637c-0.625,0-1.137-0.726-1.137-1.814
				c0-1.344,0.649-1.938,1.216-1.938c0.415,0,0.693,0.273,0.824,0.622h0.013l0.018-0.543h0.46c-0.012,0.306-0.017,0.618-0.017,0.986
				v4.072h-0.489V76.405z M27.944,74.824c0-0.089-0.006-0.191-0.021-0.273c-0.073-0.403-0.335-0.741-0.701-0.741
				c-0.504,0-0.807,0.571-0.807,1.378c0,0.712,0.253,1.334,0.791,1.334c0.318,0,0.589-0.26,0.7-0.712
				c0.02-0.09,0.039-0.213,0.039-0.309V74.824z"/>
			<path fill="#5F060F" d="M31.48,75.981c0,0.372,0.007,0.698,0.023,0.978H31.07l-0.029-0.585H31.03
				c-0.127,0.289-0.409,0.669-0.885,0.669c-0.423,0-0.927-0.313-0.927-1.574V73.37h0.487v1.988c0,0.682,0.156,1.142,0.599,1.142
				c0.328,0,0.554-0.305,0.642-0.594c0.03-0.095,0.047-0.214,0.047-0.332V73.37h0.487V75.981z"/>
			<path fill="#5F060F" d="M32.831,72.363c0.004,0.221-0.119,0.399-0.311,0.399c-0.172,0-0.295-0.179-0.295-0.399
				c0-0.228,0.128-0.407,0.304-0.407C32.711,71.957,32.831,72.136,32.831,72.363z M32.286,76.958V73.37h0.489v3.589H32.286z"/>
			<path fill="#5F060F" d="M34.171,72.343v1.026h0.7v0.498h-0.7v1.937c0,0.443,0.094,0.696,0.366,0.696
				c0.125,0,0.222-0.02,0.283-0.044l0.024,0.492c-0.095,0.051-0.244,0.086-0.434,0.086c-0.226,0-0.409-0.097-0.526-0.273
				c-0.138-0.191-0.189-0.513-0.189-0.933v-1.959h-0.417V73.37h0.417v-0.858L34.171,72.343z"/>
			<path fill="#5F060F" d="M36.903,76.958l-0.039-0.451H36.85c-0.152,0.282-0.44,0.535-0.824,0.535c-0.542,0-0.82-0.51-0.82-1.032
				c0-0.866,0.577-1.342,1.615-1.333v-0.076c0-0.297-0.059-0.833-0.609-0.833c-0.251,0-0.513,0.106-0.702,0.27L35.4,73.61
				c0.221-0.195,0.543-0.319,0.881-0.319c0.819,0,1.02,0.748,1.02,1.47V76.1c0,0.31,0.012,0.616,0.044,0.858H36.903z M36.831,75.128
				c-0.533-0.013-1.136,0.112-1.136,0.809c0,0.425,0.211,0.621,0.46,0.621c0.347,0,0.572-0.296,0.648-0.6
				c0.018-0.066,0.028-0.14,0.028-0.209V75.128z"/>
			<path fill="#5F060F" d="M38.063,76.958c0.015-0.242,0.025-0.606,0.025-0.924v-4.339h0.482v2.254h0.009
				c0.172-0.402,0.484-0.659,0.917-0.659c0.664,0,1.137,0.741,1.13,1.831c0,1.284-0.603,1.92-1.204,1.92
				c-0.386,0-0.697-0.199-0.896-0.677h-0.018l-0.023,0.594H38.063z M38.57,75.521c0,0.081,0.009,0.164,0.022,0.241
				c0.095,0.446,0.377,0.76,0.732,0.76c0.511,0,0.815-0.558,0.815-1.378c0-0.72-0.277-1.334-0.798-1.334
				c-0.332,0-0.644,0.303-0.743,0.798c-0.01,0.076-0.028,0.166-0.028,0.269V75.521z"/>
			<path fill="#5F060F" d="M41.241,71.695h0.485v5.263h-0.485V71.695z"/>
			<path fill="#5F060F" d="M42.819,75.286c0.009,0.882,0.432,1.246,0.918,1.246c0.353,0,0.563-0.083,0.745-0.187l0.083,0.468
				c-0.171,0.104-0.465,0.22-0.892,0.22c-0.826,0-1.318-0.728-1.318-1.805c0-1.083,0.474-1.938,1.259-1.938
				c0.874,0,1.109,1.03,1.109,1.689c0,0.136-0.015,0.237-0.019,0.306H42.819z M44.25,74.816c0.006-0.415-0.128-1.059-0.677-1.059
				c-0.495,0-0.71,0.607-0.749,1.059H44.25z"/>
			<path fill="#5F060F" d="M48.856,76.958c-0.108-0.141-0.205-0.28-0.353-0.487c-0.32,0.4-0.678,0.57-1.092,0.57
				c-0.724,0-1.144-0.654-1.144-1.402c0-0.681,0.303-1.149,0.729-1.46v-0.022c-0.192-0.326-0.309-0.69-0.309-1.044
				c0-0.608,0.326-1.231,0.946-1.231c0.468,0,0.827,0.415,0.827,1.061c0,0.525-0.227,0.941-0.82,1.335v0.021
				c0.317,0.489,0.671,1.035,0.911,1.393c0.169-0.349,0.288-0.83,0.359-1.459h0.442c-0.097,0.784-0.259,1.408-0.537,1.842
				c0.198,0.287,0.393,0.566,0.616,0.884H48.856z M48.266,76.1c-0.221-0.326-0.637-0.934-1.054-1.573
				c-0.199,0.173-0.48,0.489-0.48,1.014c0,0.574,0.316,1.01,0.765,1.01C47.816,76.551,48.09,76.362,48.266,76.1z M47.13,73.052
				c0,0.355,0.123,0.63,0.281,0.897c0.379-0.287,0.625-0.556,0.625-0.976c0-0.306-0.13-0.646-0.435-0.646
				C47.29,72.328,47.13,72.667,47.13,73.052z"/>
			<path fill="#5F060F" d="M50.973,76.174c0.218,0.178,0.534,0.325,0.866,0.325c0.493,0,0.783-0.348,0.783-0.853
				c0-0.466-0.201-0.732-0.706-0.993c-0.606-0.289-0.984-0.713-0.984-1.416c0-0.775,0.481-1.355,1.209-1.355
				c0.383,0,0.659,0.12,0.826,0.246l-0.133,0.526c-0.123-0.09-0.372-0.236-0.71-0.236c-0.511,0-0.705,0.406-0.705,0.749
				c0,0.464,0.227,0.696,0.744,0.962c0.63,0.326,0.955,0.733,0.955,1.469c0,0.768-0.431,1.436-1.313,1.436
				c-0.359,0-0.752-0.14-0.954-0.317L50.973,76.174z"/>
			<path fill="#5F060F" d="M56.002,75.981c0,0.372,0.006,0.698,0.022,0.978h-0.432l-0.031-0.585h-0.011
				c-0.128,0.289-0.409,0.669-0.884,0.669c-0.424,0-0.927-0.313-0.927-1.574V73.37h0.487v1.988c0,0.682,0.155,1.142,0.599,1.142
				c0.326,0,0.553-0.305,0.643-0.594c0.028-0.095,0.045-0.214,0.045-0.332V73.37h0.489V75.981z"/>
			<path fill="#5F060F" d="M56.741,76.294c0.146,0.123,0.398,0.257,0.647,0.257c0.352,0,0.52-0.235,0.52-0.532
				c0-0.312-0.139-0.481-0.5-0.661c-0.484-0.23-0.71-0.584-0.71-1.016c0-0.578,0.351-1.052,0.928-1.052
				c0.273,0,0.508,0.103,0.659,0.223l-0.124,0.474c-0.102-0.089-0.297-0.206-0.546-0.206c-0.288,0-0.451,0.22-0.451,0.488
				c0,0.296,0.163,0.43,0.511,0.607c0.467,0.238,0.706,0.548,0.706,1.082c0,0.63-0.365,1.075-1.009,1.075
				c-0.292,0-0.563-0.097-0.75-0.244L56.741,76.294z"/>
			<path fill="#5F060F" d="M59.587,72.343v1.026h0.702v0.498h-0.702v1.937c0,0.443,0.096,0.696,0.371,0.696
				c0.125,0,0.22-0.02,0.281-0.044l0.021,0.492c-0.096,0.051-0.242,0.086-0.432,0.086c-0.226,0-0.408-0.097-0.527-0.273
				c-0.139-0.191-0.188-0.513-0.188-0.933v-1.959h-0.418V73.37h0.418v-0.858L59.587,72.343z"/>
			<path fill="#5F060F" d="M62.322,76.958l-0.038-0.451h-0.019c-0.149,0.282-0.437,0.535-0.819,0.535
				c-0.544,0-0.822-0.51-0.822-1.032c0-0.866,0.579-1.342,1.617-1.333v-0.076c0-0.297-0.064-0.833-0.614-0.833
				c-0.248,0-0.51,0.106-0.697,0.27L60.82,73.61c0.221-0.195,0.542-0.319,0.88-0.319c0.82,0,1.023,0.748,1.023,1.47V76.1
				c0,0.31,0.01,0.616,0.04,0.858H62.322z M62.251,75.128c-0.535-0.013-1.134,0.112-1.134,0.809c0,0.425,0.207,0.621,0.459,0.621
				c0.345,0,0.569-0.296,0.648-0.6c0.017-0.066,0.027-0.14,0.027-0.209V75.128z"/>
			<path fill="#5F060F" d="M64.048,72.363c0.006,0.221-0.115,0.399-0.31,0.399c-0.172,0-0.295-0.179-0.295-0.399
				c0-0.228,0.133-0.407,0.307-0.407C63.933,71.957,64.048,72.136,64.048,72.363z M63.506,76.958V73.37h0.485v3.589H63.506z"/>
			<path fill="#5F060F" d="M64.803,74.342c0-0.367-0.005-0.673-0.023-0.973h0.434l0.026,0.594h0.01
				c0.134-0.338,0.447-0.673,0.888-0.673c0.372,0,0.948,0.295,0.948,1.526v2.142h-0.486v-2.067c0-0.578-0.162-1.06-0.623-1.06
				c-0.321,0-0.574,0.304-0.654,0.668c-0.023,0.08-0.033,0.194-0.033,0.3v2.159h-0.489V74.342z"/>
			<path fill="#5F060F" d="M69.362,76.958l-0.039-0.451h-0.015c-0.151,0.282-0.439,0.535-0.822,0.535
				c-0.543,0-0.819-0.51-0.819-1.032c0-0.866,0.578-1.342,1.615-1.333v-0.076c0-0.297-0.062-0.833-0.611-0.833
				c-0.25,0-0.512,0.106-0.702,0.27l-0.105-0.429c0.217-0.195,0.54-0.319,0.879-0.319c0.819,0,1.018,0.748,1.018,1.47V76.1
				c0,0.31,0.016,0.616,0.048,0.858H69.362z M69.293,75.128c-0.535-0.013-1.136,0.112-1.136,0.809c0,0.425,0.209,0.621,0.46,0.621
				c0.348,0,0.569-0.296,0.646-0.6c0.02-0.066,0.03-0.14,0.03-0.209V75.128z"/>
			<path fill="#5F060F" d="M70.524,76.958c0.012-0.242,0.026-0.606,0.026-0.924v-4.339h0.482v2.254h0.011
				c0.173-0.402,0.48-0.659,0.913-0.659c0.666,0,1.136,0.741,1.129,1.831c0,1.284-0.602,1.92-1.199,1.92
				c-0.391,0-0.7-0.199-0.899-0.677h-0.015l-0.026,0.594H70.524z M71.032,75.521c0,0.081,0.011,0.164,0.021,0.241
				c0.092,0.446,0.377,0.76,0.734,0.76c0.508,0,0.814-0.558,0.814-1.378c0-0.72-0.279-1.334-0.8-1.334
				c-0.336,0-0.644,0.303-0.743,0.798c-0.011,0.076-0.026,0.166-0.026,0.269V75.521z"/>
			<path fill="#5F060F" d="M73.701,71.695h0.488v5.263h-0.488V71.695z"/>
			<path fill="#5F060F" d="M75.28,75.286c0.008,0.882,0.432,1.246,0.918,1.246c0.352,0,0.563-0.083,0.743-0.187l0.083,0.468
				c-0.173,0.104-0.464,0.22-0.891,0.22c-0.826,0-1.322-0.728-1.322-1.805c0-1.083,0.476-1.938,1.262-1.938
				c0.875,0,1.108,1.03,1.108,1.689c0,0.136-0.01,0.237-0.017,0.306H75.28z M76.709,74.816c0.005-0.415-0.126-1.059-0.675-1.059
				c-0.494,0-0.712,0.607-0.75,1.059H76.709z"/>
			<path fill="#5F060F" d="M81.588,76.797c-0.177,0.12-0.532,0.236-0.99,0.236c-1.053,0-1.845-0.887-1.845-2.526
				c0-1.564,0.792-2.625,1.951-2.625c0.465,0,0.757,0.132,0.889,0.218l-0.12,0.531c-0.182-0.119-0.442-0.207-0.75-0.207
				c-0.879,0-1.459,0.747-1.459,2.059c0,1.225,0.527,2.008,1.433,2.008c0.295,0,0.594-0.081,0.792-0.207L81.588,76.797z"/>
			<path fill="#5F060F" d="M82.17,71.695h0.489v2.242h0.01c0.08-0.188,0.201-0.351,0.352-0.461c0.145-0.11,0.314-0.185,0.499-0.185
				c0.361,0,0.934,0.295,0.934,1.534v2.134h-0.485v-2.061c0-0.577-0.164-1.066-0.622-1.066c-0.315,0-0.564,0.297-0.654,0.651
				c-0.028,0.089-0.033,0.186-0.033,0.313v2.162H82.17V71.695z"/>
			<path fill="#5F060F" d="M86.732,76.958l-0.037-0.451h-0.017c-0.155,0.282-0.441,0.535-0.824,0.535c-0.543,0-0.82-0.51-0.82-1.032
				c0-0.866,0.577-1.342,1.616-1.333v-0.076c0-0.297-0.061-0.833-0.61-0.833c-0.252,0-0.512,0.106-0.701,0.27L85.23,73.61
				c0.223-0.195,0.543-0.319,0.881-0.319c0.822,0,1.019,0.748,1.019,1.47V76.1c0,0.31,0.013,0.616,0.047,0.858H86.732z
				 M86.661,75.128c-0.532-0.013-1.137,0.112-1.137,0.809c0,0.425,0.211,0.621,0.461,0.621c0.35,0,0.573-0.296,0.649-0.6
				c0.016-0.066,0.026-0.14,0.026-0.209V75.128z"/>
			<path fill="#5F060F" d="M87.916,74.342c0-0.367-0.007-0.673-0.022-0.973h0.432l0.029,0.594h0.011
				c0.131-0.338,0.444-0.673,0.886-0.673c0.372,0,0.952,0.295,0.952,1.526v2.142h-0.492v-2.067c0-0.578-0.16-1.06-0.618-1.06
				c-0.322,0-0.572,0.304-0.657,0.668c-0.021,0.08-0.032,0.194-0.032,0.3v2.159h-0.489V74.342z"/>
			<path fill="#5F060F" d="M90.99,74.342c0-0.367-0.005-0.673-0.023-0.973h0.433l0.031,0.594h0.011
				c0.13-0.338,0.441-0.673,0.885-0.673c0.372,0,0.948,0.295,0.948,1.526v2.142h-0.484v-2.067c0-0.578-0.163-1.06-0.623-1.06
				c-0.321,0-0.572,0.304-0.655,0.668c-0.021,0.08-0.033,0.194-0.033,0.3v2.159h-0.49V74.342z"/>
			<path fill="#5F060F" d="M94.338,75.286c0.011,0.882,0.433,1.246,0.921,1.246c0.35,0,0.56-0.083,0.743-0.187l0.083,0.468
				c-0.174,0.104-0.466,0.22-0.893,0.22c-0.826,0-1.32-0.728-1.32-1.805c0-1.083,0.477-1.938,1.256-1.938
				c0.877,0,1.112,1.03,1.112,1.689c0,0.136-0.013,0.237-0.017,0.306H94.338z M95.769,74.816c0.004-0.415-0.126-1.059-0.676-1.059
				c-0.494,0-0.711,0.607-0.75,1.059H95.769z"/>
			<path fill="#5F060F" d="M96.842,71.695h0.489v5.263h-0.489V71.695z"/>
			<path fill="#5F060F" d="M98.081,76.294c0.146,0.123,0.4,0.257,0.645,0.257c0.357,0,0.52-0.235,0.52-0.532
				c0-0.312-0.138-0.481-0.499-0.661c-0.484-0.23-0.711-0.584-0.711-1.016c0-0.578,0.354-1.052,0.927-1.052
				c0.274,0,0.51,0.103,0.658,0.223l-0.119,0.474c-0.105-0.089-0.297-0.206-0.55-0.206c-0.287,0-0.447,0.22-0.447,0.488
				c0,0.296,0.16,0.43,0.508,0.607c0.468,0.238,0.706,0.548,0.706,1.082c0,0.63-0.367,1.075-1.004,1.075
				c-0.294,0-0.564-0.097-0.754-0.244L98.081,76.294z"/>
			<path fill="#5F060F" d="M102.061,72.363c0.007,0.221-0.118,0.399-0.311,0.399c-0.173,0-0.294-0.179-0.294-0.399
				c0-0.228,0.126-0.407,0.302-0.407C101.943,71.957,102.061,72.136,102.061,72.363z M101.518,76.958V73.37h0.485v3.589H101.518z"/>
			<path fill="#5F060F" d="M102.817,74.342c0-0.367-0.011-0.673-0.022-0.973h0.432l0.025,0.594h0.013
				c0.132-0.338,0.443-0.673,0.888-0.673c0.369,0,0.946,0.295,0.946,1.526v2.142h-0.487v-2.067c0-0.578-0.161-1.06-0.621-1.06
				c-0.323,0-0.575,0.304-0.656,0.668c-0.022,0.08-0.031,0.194-0.031,0.3v2.159h-0.487V74.342z"/>
			<path fill="#5F060F" d="M107.083,72.026c0.232-0.053,0.534-0.099,0.925-0.099c0.477,0,0.824,0.146,1.048,0.416
				c0.205,0.236,0.326,0.599,0.326,1.043c0,0.452-0.102,0.809-0.288,1.067c-0.255,0.362-0.672,0.549-1.143,0.549
				c-0.143,0-0.279-0.009-0.388-0.044v2h-0.481V72.026z M107.564,74.433c0.105,0.036,0.237,0.05,0.397,0.05
				c0.582,0,0.939-0.377,0.939-1.068c0-0.656-0.349-0.973-0.883-0.973c-0.208,0-0.372,0.021-0.454,0.048V74.433z"/>
			<path fill="#5F060F" d="M109.924,74.491c0-0.423-0.006-0.786-0.024-1.121h0.428l0.017,0.705h0.024
				c0.121-0.479,0.414-0.784,0.739-0.784c0.057,0,0.095,0.005,0.143,0.023v0.616c-0.054-0.017-0.102-0.026-0.168-0.026
				c-0.342,0-0.586,0.351-0.654,0.84c-0.011,0.091-0.023,0.191-0.023,0.306v1.91h-0.481V74.491z"/>
			<path fill="#5F060F" d="M114.107,75.135c0,1.329-0.687,1.907-1.335,1.907c-0.728,0-1.288-0.712-1.288-1.847
				c0-1.201,0.59-1.905,1.33-1.905C113.587,73.291,114.107,74.039,114.107,75.135z M111.978,75.174c0,0.784,0.338,1.377,0.817,1.377
				c0.467,0,0.816-0.587,0.816-1.393c0-0.608-0.229-1.377-0.807-1.377C112.225,73.782,111.978,74.491,111.978,75.174z"/>
			<path fill="#5F060F" d="M117.042,71.695v4.339c0,0.318,0,0.682,0.017,0.924h-0.434l-0.024-0.621h-0.013
				c-0.148,0.4-0.473,0.705-0.914,0.705c-0.649,0-1.147-0.737-1.147-1.826c-0.006-1.19,0.549-1.926,1.206-1.926
				c0.406,0,0.683,0.257,0.808,0.548h0.009v-2.143H117.042z M116.551,74.834c0-0.082-0.002-0.193-0.021-0.274
				c-0.069-0.415-0.338-0.758-0.706-0.758c-0.505,0-0.803,0.593-0.803,1.386c0,0.729,0.265,1.327,0.792,1.327
				c0.327,0,0.628-0.287,0.716-0.779c0.019-0.089,0.021-0.176,0.021-0.284V74.834z"/>
			<path fill="#5F060F" d="M120.092,75.981c0,0.372,0.006,0.698,0.021,0.978h-0.432l-0.028-0.585h-0.009
				c-0.127,0.289-0.412,0.669-0.886,0.669c-0.425,0-0.929-0.313-0.929-1.574V73.37h0.488v1.988c0,0.682,0.153,1.142,0.599,1.142
				c0.328,0,0.556-0.305,0.644-0.594c0.029-0.095,0.043-0.214,0.043-0.332V73.37h0.488V75.981z"/>
			<path fill="#5F060F" d="M122.816,76.825c-0.132,0.092-0.416,0.208-0.773,0.208c-0.81,0-1.335-0.734-1.335-1.829
				c0-1.104,0.563-1.909,1.443-1.909c0.285,0,0.539,0.097,0.675,0.188l-0.112,0.503c-0.118-0.089-0.301-0.171-0.563-0.171
				c-0.619,0-0.952,0.607-0.952,1.357c0,0.827,0.399,1.34,0.93,1.34c0.278,0,0.462-0.097,0.6-0.177L122.816,76.825z"/>
			<path fill="#5F060F" d="M124.042,72.343v1.026h0.7v0.498h-0.7v1.937c0,0.443,0.093,0.696,0.365,0.696
				c0.129,0,0.225-0.02,0.285-0.044l0.019,0.492c-0.091,0.051-0.243,0.086-0.431,0.086c-0.227,0-0.41-0.097-0.522-0.273
				c-0.143-0.191-0.192-0.513-0.192-0.933v-1.959h-0.415V73.37h0.415v-0.858L124.042,72.343z"/>
			<path fill="#5F060F" d="M125.832,72.363c0.006,0.221-0.119,0.399-0.311,0.399c-0.173,0-0.294-0.179-0.294-0.399
				c0-0.228,0.13-0.407,0.302-0.407C125.713,71.957,125.832,72.136,125.832,72.363z M125.289,76.958V73.37h0.489v3.589H125.289z"/>
			<path fill="#5F060F" d="M129.012,75.135c0,1.329-0.682,1.907-1.337,1.907c-0.726,0-1.284-0.712-1.284-1.847
				c0-1.201,0.587-1.905,1.332-1.905C128.489,73.291,129.012,74.039,129.012,75.135z M126.884,75.174
				c0,0.784,0.338,1.377,0.817,1.377c0.465,0,0.814-0.587,0.814-1.393c0-0.608-0.229-1.377-0.803-1.377
				C127.134,73.782,126.884,74.491,126.884,75.174z"/>
			<path fill="#5F060F" d="M129.629,74.342c0-0.367-0.01-0.673-0.024-0.973h0.433l0.027,0.594h0.01
				c0.134-0.338,0.445-0.673,0.888-0.673c0.372,0,0.949,0.295,0.949,1.526v2.142h-0.487v-2.067c0-0.578-0.162-1.06-0.622-1.06
				c-0.322,0-0.569,0.304-0.655,0.668c-0.021,0.08-0.033,0.194-0.033,0.3v2.159h-0.486V74.342z"/>
			<path fill="#5F060F" d="M136.235,76.958c-0.107-0.141-0.209-0.28-0.351-0.487c-0.321,0.4-0.683,0.57-1.093,0.57
				c-0.726,0-1.145-0.654-1.145-1.402c0-0.681,0.301-1.149,0.73-1.46v-0.022c-0.196-0.326-0.312-0.69-0.312-1.044
				c0-0.608,0.328-1.231,0.949-1.231c0.467,0,0.824,0.415,0.824,1.061c0,0.525-0.229,0.941-0.817,1.335v0.021
				c0.313,0.489,0.668,1.035,0.908,1.393c0.169-0.349,0.288-0.83,0.359-1.459h0.443c-0.1,0.784-0.26,1.408-0.539,1.842
				c0.201,0.287,0.397,0.566,0.616,0.884H136.235z M135.644,76.1c-0.22-0.326-0.637-0.934-1.052-1.573
				c-0.199,0.173-0.483,0.489-0.483,1.014c0,0.574,0.317,1.01,0.767,1.01C135.197,76.551,135.466,76.362,135.644,76.1z
				 M134.508,73.052c0,0.355,0.124,0.63,0.282,0.897c0.378-0.287,0.623-0.556,0.623-0.976c0-0.306-0.127-0.646-0.433-0.646
				C134.67,72.328,134.508,72.667,134.508,73.052z"/>
			<path fill="#5F060F" d="M138.902,72.512h-1.139v-0.549h2.77v0.549h-1.142v4.447h-0.489V72.512z"/>
			<path fill="#5F060F" d="M140.683,74.491c0-0.423-0.008-0.786-0.026-1.121h0.43l0.018,0.705h0.02
				c0.121-0.479,0.415-0.784,0.743-0.784c0.059,0,0.095,0.005,0.141,0.023v0.616c-0.052-0.017-0.103-0.026-0.167-0.026
				c-0.344,0-0.589,0.351-0.657,0.84c-0.009,0.091-0.02,0.191-0.02,0.306v1.91h-0.481V74.491z"/>
			<path fill="#5F060F" d="M143.95,76.958l-0.038-0.451h-0.018c-0.148,0.282-0.437,0.535-0.818,0.535
				c-0.546,0-0.824-0.51-0.824-1.032c0-0.866,0.578-1.342,1.616-1.333v-0.076c0-0.297-0.061-0.833-0.612-0.833
				c-0.249,0-0.509,0.106-0.698,0.27l-0.109-0.429c0.223-0.195,0.544-0.319,0.883-0.319c0.819,0,1.021,0.748,1.021,1.47V76.1
				c0,0.31,0.011,0.616,0.041,0.858H143.95z M143.879,75.128c-0.535-0.013-1.136,0.112-1.136,0.809c0,0.425,0.21,0.621,0.459,0.621
				c0.349,0,0.57-0.296,0.649-0.6c0.016-0.066,0.028-0.14,0.028-0.209V75.128z"/>
			<path fill="#5F060F" d="M147.451,71.695v4.339c0,0.318,0.004,0.682,0.022,0.924h-0.437l-0.023-0.621h-0.01
				c-0.148,0.4-0.475,0.705-0.917,0.705c-0.646,0-1.144-0.737-1.144-1.826c-0.009-1.19,0.547-1.926,1.2-1.926
				c0.409,0,0.69,0.257,0.81,0.548h0.01v-2.143H147.451z M146.963,74.834c0-0.082-0.003-0.193-0.02-0.274
				c-0.071-0.415-0.338-0.758-0.707-0.758c-0.501,0-0.801,0.593-0.801,1.386c0,0.729,0.266,1.327,0.792,1.327
				c0.324,0,0.627-0.287,0.716-0.779c0.017-0.089,0.02-0.176,0.02-0.284V74.834z"/>
			<path fill="#5F060F" d="M148.532,75.286c0.012,0.882,0.433,1.246,0.922,1.246c0.345,0,0.557-0.083,0.742-0.187l0.081,0.468
				c-0.17,0.104-0.465,0.22-0.895,0.22c-0.823,0-1.316-0.728-1.316-1.805c0-1.083,0.477-1.938,1.257-1.938
				c0.875,0,1.11,1.03,1.11,1.689c0,0.136-0.012,0.237-0.018,0.306H148.532z M149.963,74.816c0.003-0.415-0.128-1.059-0.676-1.059
				c-0.494,0-0.709,0.607-0.75,1.059H149.963z"/>
		</g>
	</g>
</g>
</svg>
